# Blender v3.1.2 OBJ File: 'frostyqueen_trofeu.blend1'
# www.blender.org
mtllib frostyqueen_trofeu.mtl
o Cube
v -0.360440 0.327037 0.402075
v -0.360440 -0.392813 0.402075
v -0.360440 0.327037 -0.317774
v -0.360440 -0.392813 -0.317774
v 0.359409 0.327037 0.402075
v 0.359409 -0.392813 0.402075
v 0.359409 0.327037 -0.317774
v 0.359409 -0.392813 -0.317774
v -0.500411 0.390577 0.495749
v -0.500411 -0.324752 0.495749
v -0.500411 0.390577 0.398251
v -0.500411 -0.324752 0.398251
v 0.499380 0.390577 0.495749
v 0.499380 -0.324752 0.495749
v 0.499380 0.390577 0.398251
v 0.499380 -0.324752 0.398251
v -0.000516 -0.593838 0.495749
v -0.000516 0.390577 0.398251
v -0.000516 -0.593838 0.398251
v -0.000516 0.390577 0.495749
vt 0.125000 0.750000
vt 0.250000 0.750000
vt 0.250000 1.000000
vt 0.125000 1.000000
vt 0.250000 0.500000
vt 0.250000 0.750000
vt 0.125000 0.750000
vt 0.125000 0.500000
vt 0.000000 0.750000
vt 0.000000 0.500000
vt 0.375000 1.000000
vt 0.250000 1.000000
vt 0.250000 0.750000
vt 0.375000 0.750000
vt 0.375000 0.500000
vt 0.375000 0.750000
vt 0.500000 0.500000
vt 0.500000 0.750000
vt 0.769091 0.847495
vt 0.769091 0.905586
vt 0.757761 0.905586
vt 0.757761 0.847495
vt 0.872156 0.731313
vt 0.757761 0.731313
vt 0.757761 0.673222
vt 0.840886 0.673222
vt 0.997880 0.775524
vt 0.997880 0.814924
vt 0.986550 0.814924
vt 0.986550 0.775524
vt 0.986550 0.709552
vt 0.986550 0.673222
vt 0.997880 0.673222
vt 0.997880 0.709552
vt 0.780421 0.789404
vt 0.780421 0.872529
vt 0.769091 0.872529
vt 0.769091 0.789404
vt 0.986550 0.731313
vt 0.872156 0.731313
vt 0.872156 0.673222
vt 0.955281 0.673222
vt 0.955281 0.789404
vt 0.872156 0.789404
vt 0.840886 0.789404
vt 0.757761 0.789404
vt 0.769091 0.789404
vn 0.0000 1.0000 0.0000
vn -0.0000 0.0000 -1.0000
vn 1.0000 0.0000 -0.0000
vn 0.0000 -1.0000 0.0000
vn -1.0000 0.0000 0.0000
vn 0.0000 0.0000 1.0000
vn -0.4740 -0.8805 0.0000
vn 0.4740 -0.8805 0.0000
usemtl Material
s off
f 1/1/1 5/2/1 7/3/1 3/4/1
f 4/5/2 3/6/2 7/7/2 8/8/2
f 8/8/3 7/7/3 5/9/3 6/10/3
f 6/11/4 2/12/4 4/13/4 8/14/4
f 2/15/5 1/16/5 3/6/5 4/5/5
f 6/17/6 5/18/6 1/16/6 2/15/6
usemtl Material.001
f 20/19/1 13/20/1 15/21/1 18/22/1
f 19/23/2 18/24/2 15/25/2 16/26/2
f 16/27/3 15/28/3 13/29/3 14/30/3
f 17/31/7 10/32/7 12/33/7 19/34/7
f 10/35/5 9/36/5 11/37/5 12/38/5
f 17/39/6 20/40/6 9/41/6 10/42/6
f 14/43/6 13/44/6 20/40/6 17/39/6
f 14/30/8 17/31/8 19/34/8 16/27/8
f 12/45/2 11/46/2 18/24/2 19/23/2
f 9/47/1 20/19/1 18/22/1 11/46/1
