# Blender v3.1.2 OBJ File: 'heated_trofeu.blend'
# www.blender.org
mtllib heated_trofeu.mtl
o Cube
v -0.373983 0.354098 0.412374
v -0.373983 -0.393869 0.412374
v -0.373983 0.354098 -0.335592
v -0.373983 -0.393869 -0.335592
v 0.373983 0.354098 0.412374
v 0.373983 -0.393869 0.412374
v 0.373983 0.354098 -0.335592
v 0.373983 -0.393869 -0.335592
v -0.500000 0.399602 0.498307
v -0.500000 -0.315877 0.498307
v -0.500000 0.399602 0.400788
v -0.500000 -0.315877 0.400788
v 0.500000 0.399602 0.498307
v 0.500000 -0.315877 0.498307
v 0.500000 0.399602 0.400788
v 0.500000 -0.315877 0.400788
v 0.000000 -0.585019 0.498307
v 0.000000 0.399602 0.400788
v 0.000000 -0.585019 0.400788
v 0.000000 0.399602 0.498307
vt 0.333333 1.000000
vt 0.166667 1.000000
vt 0.166667 0.466667
vt 0.333333 0.466667
vt 0.333333 0.066667
vt 0.166667 0.066667
vt 0.000599 0.066667
vt 0.000599 0.466667
vt 0.167265 0.466667
vt 0.167265 0.066667
vt 0.166667 0.466667
vt 0.000000 0.466667
vt -0.000000 1.000000
vt 0.166667 1.000000
vt 0.501302 0.066667
vt 0.501302 0.466667
vt 0.334635 0.466667
vt 0.334635 0.066667
vt 0.520833 0.066667
vt 0.520833 0.466667
vt 0.666667 0.466667
vt 0.666667 0.066667
vt 0.700461 0.788699
vt 0.700461 0.967442
vt 0.686106 0.967442
vt 0.686106 0.788699
vt 0.831044 0.431213
vt 0.686106 0.431213
vt 0.686106 0.252470
vt 0.791426 0.252470
vt 0.990336 0.567249
vt 0.990336 0.688480
vt 0.975981 0.688480
vt 0.975981 0.567249
vt 0.975981 0.364256
vt 0.975981 0.252470
vt 0.990336 0.252470
vt 0.990336 0.364256
vt 0.714816 0.609956
vt 0.714816 0.865729
vt 0.700461 0.865729
vt 0.700461 0.609956
vt 0.975981 0.431213
vt 0.831044 0.431213
vt 0.831044 0.252470
vt 0.936363 0.252470
vt 0.936363 0.609956
vt 0.831044 0.609956
vt 0.791426 0.609956
vt 0.686106 0.609956
vt 0.700461 0.609956
vn 0.0000 1.0000 0.0000
vn -0.0000 0.0000 -1.0000
vn 1.0000 0.0000 -0.0000
vn 0.0000 -1.0000 0.0000
vn -1.0000 0.0000 0.0000
vn 0.0000 0.0000 1.0000
vn -0.4740 -0.8805 0.0000
vn 0.4740 -0.8805 0.0000
usemtl Material
s off
f 1/1/1 5/2/1 7/3/1 3/4/1
f 4/5/2 3/4/2 7/3/2 8/6/2
f 8/7/3 7/8/3 5/9/3 6/10/3
f 6/11/4 2/12/4 4/13/4 8/14/4
f 2/15/5 1/16/5 3/17/5 4/18/5
f 6/19/6 5/20/6 1/21/6 2/22/6
usemtl Material.002
f 20/23/1 13/24/1 15/25/1 18/26/1
f 19/27/2 18/28/2 15/29/2 16/30/2
f 16/31/3 15/32/3 13/33/3 14/34/3
f 17/35/7 10/36/7 12/37/7 19/38/7
f 10/39/5 9/40/5 11/41/5 12/42/5
f 17/43/6 20/44/6 9/45/6 10/46/6
f 14/47/6 13/48/6 20/44/6 17/43/6
f 14/34/8 17/35/8 19/38/8 16/31/8
f 12/49/2 11/50/2 18/28/2 19/27/2
f 9/51/1 20/23/1 18/26/1 11/50/1
