# Blender v3.1.2 OBJ File: 'skull_king_deep_hummer.blend'
# www.blender.org
mtllib skull_king_deep_hummer.mtl
o cube_Cube.002
v -0.625959 0.465558 -0.128132
v -0.274357 0.711753 -0.128132
v -0.461830 0.231157 -0.128132
v -0.110228 0.477352 -0.128132
v -0.625959 0.465558 0.158019
v -0.274357 0.711753 0.158019
v -0.461830 0.231157 0.158019
v -0.110228 0.477352 0.158019
v -0.315390 0.770353 -0.199670
v 0.036212 1.016547 -0.199670
v -0.069196 0.418751 -0.199670
v 0.282406 0.664946 -0.199670
v -0.315390 0.770353 0.229557
v 0.036212 1.016547 0.229556
v -0.069195 0.418751 0.229557
v 0.282406 0.664946 0.229556
v -1.018593 0.277965 -0.199670
v -0.666992 0.524159 -0.199670
v -0.772399 -0.073637 -0.199670
v -0.420797 0.172557 -0.199670
v -1.018593 0.277965 0.229557
v -0.666992 0.524159 0.229557
v -0.772399 -0.073637 0.229557
v -0.420797 0.172557 0.229557
v -0.450158 0.588656 -0.128132
v -0.286029 0.354254 -0.128132
v -0.286029 0.354254 0.158019
v -0.450158 0.588656 0.158019
v -0.461830 0.231157 0.014943
v -0.110228 0.477352 0.014943
v -0.625959 0.465558 0.014943
v -0.274357 0.711753 0.014943
v -0.450158 0.588656 0.014943
v -0.362258 0.650204 -0.128132
v -0.198128 0.415803 -0.128132
v -0.198128 0.415803 0.158019
v -0.362258 0.650204 0.158019
v -0.362258 0.650204 0.014943
v -0.198128 0.415803 0.014943
v -0.373929 0.292706 -0.128132
v -0.373929 0.292706 0.158019
v -0.538059 0.527107 0.158019
v -0.538059 0.527107 -0.128132
v -0.373929 0.292706 0.014943
v -0.538059 0.527107 0.014943
v -0.242078 0.385029 -0.128132
v -0.242078 0.385029 0.158019
v -0.406208 0.619430 0.158019
v -0.406208 0.619430 0.014943
v -0.242078 0.385029 0.014943
v -0.406208 0.619430 -0.128132
v -0.494109 0.557881 -0.128132
v -0.329979 0.323480 -0.128132
v -0.329979 0.323480 0.158019
v -0.494108 0.557881 0.158019
v -0.329979 0.323480 0.014943
v -0.494109 0.557881 0.014943
v -0.110228 0.477352 0.086481
v -0.625959 0.465558 0.086481
v -0.286029 0.354254 0.086481
v -0.461830 0.231157 0.086481
v -0.274357 0.711753 0.086481
v -0.450158 0.588656 0.086481
v -0.362258 0.650204 0.086481
v -0.198128 0.415803 0.086481
v -0.538059 0.527107 0.086481
v -0.373929 0.292706 0.086481
v -0.242078 0.385029 0.086481
v -0.406208 0.619430 0.086481
v -0.494109 0.557881 0.086481
v -0.329979 0.323480 0.086481
v -0.461830 0.231157 -0.056594
v -0.274357 0.711753 -0.056594
v -0.450158 0.588656 -0.056594
v -0.110228 0.477352 -0.056594
v -0.625959 0.465558 -0.056594
v -0.286029 0.354254 -0.056594
v -0.198128 0.415803 -0.056594
v -0.362258 0.650204 -0.056594
v -0.373929 0.292706 -0.056594
v -0.538059 0.527107 -0.056594
v -0.406208 0.619430 -0.056594
v -0.242078 0.385029 -0.056594
v -0.329979 0.323480 -0.056594
v -0.494109 0.557881 -0.056594
v -0.461830 0.231157 0.050712
v -0.274357 0.711753 0.050712
v -0.450158 0.588656 0.050712
v -0.362258 0.650204 0.050712
v -0.538059 0.527107 0.050712
v -0.406208 0.619430 0.050712
v -0.494109 0.557881 0.050712
v -0.110228 0.477352 0.050712
v -0.625959 0.465558 0.050712
v -0.286029 0.354254 0.050712
v -0.198128 0.415803 0.050712
v -0.373929 0.292706 0.050712
v -0.242078 0.385029 0.050712
v -0.329979 0.323480 0.050712
v -0.110228 0.477352 -0.020826
v -0.625959 0.465558 -0.020826
v -0.286029 0.354254 -0.020826
v -0.198128 0.415803 -0.020826
v -0.373929 0.292706 -0.020826
v -0.242078 0.385029 -0.020826
v -0.329979 0.323480 -0.020826
v -0.461830 0.231157 -0.020826
v -0.274357 0.711753 -0.020826
v -0.450158 0.588656 -0.020826
v -0.362258 0.650204 -0.020826
v -0.538059 0.527107 -0.020826
v -0.406208 0.619430 -0.020826
v -0.494109 0.557881 -0.020826
v -0.264054 0.369642 -0.128132
v -0.264053 0.369642 0.158019
v -0.428183 0.604043 0.158019
v -0.264054 0.369642 0.014943
v -0.428183 0.604043 -0.128132
v -0.428183 0.604043 0.086481
v -0.264054 0.369642 0.086481
v -0.264054 0.369642 -0.056594
v -0.428183 0.604043 -0.056594
v -0.264054 0.369642 0.050712
v -0.428183 0.604043 0.050712
v -0.428183 0.604043 -0.020826
v -0.264054 0.369642 -0.020826
v -0.472133 0.573269 -0.128132
v -0.308004 0.338867 -0.128132
v -0.308004 0.338867 0.158019
v -0.472133 0.573269 0.158019
v -0.308004 0.338867 0.014943
v -0.472133 0.573269 0.014943
v -0.472133 0.573269 0.086481
v -0.308004 0.338867 0.086481
v -0.308004 0.338867 -0.056594
v -0.472133 0.573269 -0.056594
v -0.308004 0.338867 0.050712
v -0.472133 0.573269 0.050712
v -0.472133 0.573269 -0.020826
v -0.308004 0.338867 -0.020826
v 0.380190 -0.597204 -0.020826
v 0.380190 -0.597204 0.014943
v 0.402165 -0.581816 0.014943
v 0.380190 -0.597204 0.050712
v 0.402165 -0.581816 0.050712
v 0.402165 -0.581816 -0.020826
v 0.358214 -0.612591 0.014943
v 0.358214 -0.612591 0.050712
v 0.358214 -0.612591 -0.020826
v -0.461581 0.604970 0.050712
v -0.461581 0.604970 0.014943
v -0.439606 0.620357 0.014943
v -0.417631 0.635744 0.050712
v -0.417631 0.635744 0.014943
v -0.439606 0.620357 0.050712
v -0.461581 0.604970 -0.020826
v -0.417631 0.635744 -0.020826
v -0.439606 0.620357 -0.020826
vt 0.843750 0.847656
vt 0.875000 0.847656
vt 0.875000 0.972656
vt 0.843750 0.972656
vt 0.843750 0.941375
vt 0.875000 0.941375
vt 0.875000 0.972625
vt 0.843750 0.972625
vt 0.843750 0.847656
vt 0.875000 0.847656
vt 0.875000 0.972656
vt 0.843750 0.972656
vt 0.843750 0.937500
vt 0.875000 0.937500
vt 0.875000 0.968750
vt 0.843750 0.968750
vt 0.796875 0.843750
vt 0.812500 0.843750
vt 0.812500 0.968750
vt 0.796875 0.968750
vt 0.796875 0.843750
vt 0.812500 0.843750
vt 0.812500 0.968750
vt 0.796875 0.968750
vt 0.750000 0.843750
vt 0.812500 0.843750
vt 0.812500 0.968750
vt 0.750000 0.968750
vt 0.812500 0.843750
vt 0.875000 0.843750
vt 0.875000 0.968750
vt 0.812500 0.968750
vt 0.750000 0.843750
vt 0.812500 0.843750
vt 0.812500 0.968750
vt 0.750000 0.968750
vt 0.750000 0.843750
vt 0.812500 0.843750
vt 0.812500 0.968750
vt 0.750000 0.968750
vt 0.750000 0.843750
vt 0.812500 0.843750
vt 0.812500 0.968750
vt 0.750000 0.843750
vt 0.812500 0.843750
vt 0.750000 0.968750
vt 0.750000 0.843750
vt 0.812500 0.843750
vt 0.812500 0.968750
vt 0.750000 0.968750
vt 0.812500 0.843750
vt 0.875000 0.843750
vt 0.875000 0.968750
vt 0.812500 0.968750
vt 0.750000 0.843750
vt 0.812500 0.843750
vt 0.812500 0.968750
vt 0.750000 0.968750
vt 0.750000 0.843750
vt 0.812500 0.843750
vt 0.812500 0.968750
vt 0.750000 0.968750
vt 0.750000 0.843750
vt 0.812500 0.843750
vt 0.812500 0.968750
vt 0.750000 0.843750
vt 0.812500 0.843750
vt 0.750000 0.968750
vt 0.804688 0.937500
vt 0.812500 0.937500
vt 0.812500 0.968750
vt 0.804688 0.968750
vt 0.804688 0.847656
vt 0.812500 0.847656
vt 0.812500 0.972656
vt 0.804688 0.972656
vt 0.804688 0.941375
vt 0.812500 0.941375
vt 0.812500 0.972625
vt 0.804688 0.972625
vt 0.804688 0.847656
vt 0.812500 0.847656
vt 0.812500 0.972656
vt 0.804688 0.972656
vt 0.969129 0.003290
vt 0.999902 0.003290
vt 0.999902 0.468640
vt 0.969129 0.468640
vt 0.804688 0.890625
vt 0.812500 0.890625
vt 0.812500 0.906250
vt 0.804688 0.906250
vt 0.773438 0.843750
vt 0.781250 0.843750
vt 0.781250 0.968750
vt 0.773438 0.968750
vt 0.773438 0.843750
vt 0.781250 0.843750
vt 0.781250 0.968750
vt 0.773438 0.968750
vt 0.843750 0.890625
vt 0.875000 0.890625
vt 0.875000 0.906250
vt 0.843750 0.906250
vt 0.843750 0.894500
vt 0.875000 0.894500
vt 0.875000 0.910125
vt 0.843750 0.910125
vt 0.828125 0.894500
vt 0.828125 0.910125
vt 0.828125 0.890625
vt 0.828125 0.906250
vt 0.828125 0.937500
vt 0.828125 0.968750
vt 0.828125 0.847656
vt 0.828125 0.972656
vt 0.828125 0.941375
vt 0.828125 0.972625
vt 0.828125 0.847656
vt 0.828125 0.972656
vt 0.750000 0.890625
vt 0.781250 0.890625
vt 0.781250 0.906250
vt 0.750000 0.906250
vt 0.750000 0.894500
vt 0.781250 0.894500
vt 0.781250 0.910125
vt 0.750000 0.910125
vt 0.750000 0.847656
vt 0.781250 0.847656
vt 0.781250 0.972656
vt 0.750000 0.972656
vt 0.750000 0.941375
vt 0.781250 0.941375
vt 0.781250 0.972625
vt 0.750000 0.972625
vt 0.750000 0.847656
vt 0.781250 0.847656
vt 0.781250 0.972656
vt 0.750000 0.972656
vt 0.750000 0.937500
vt 0.781250 0.937500
vt 0.781250 0.968750
vt 0.750000 0.968750
vt 0.820312 0.847656
vt 0.820312 0.972656
vt 0.820312 0.941375
vt 0.820312 0.972625
vt 0.820312 0.847656
vt 0.820312 0.972656
vt 0.820312 0.937500
vt 0.820312 0.968750
vt 0.999983 0.386646
vt 0.984416 0.386646
vt 0.984416 0.436266
vt 0.999983 0.436266
vt 0.820312 0.894500
vt 0.820312 0.910125
vt 0.796875 0.890625
vt 0.796875 0.906250
vt 0.796875 0.894500
vt 0.796875 0.910125
vt 0.796875 0.847656
vt 0.796875 0.972656
vt 0.796875 0.941375
vt 0.796875 0.972625
vt 0.796875 0.847656
vt 0.796875 0.972656
vt 0.796875 0.937500
vt 0.796875 0.968750
vt 0.781250 0.925750
vt 0.796875 0.925750
vt 0.781250 0.843750
vt 0.796875 0.843750
vt 0.796875 0.875000
vt 0.781250 0.875000
vt 0.820312 0.843750
vt 0.828125 0.843750
vt 0.828125 0.875000
vt 0.820312 0.875000
vt 0.820312 0.925750
vt 0.828125 0.925750
vt 0.750000 0.925750
vt 0.750000 0.843750
vt 0.750000 0.875000
vt 0.843750 0.925750
vt 0.843750 0.843750
vt 0.843750 0.875000
vt 0.875000 0.843750
vt 0.875000 0.875000
vt 0.750000 0.843750
vt 0.765625 0.843750
vt 0.765625 0.968750
vt 0.750000 0.968750
vt 0.804688 0.843750
vt 0.812500 0.843750
vt 0.812500 0.875000
vt 0.804688 0.875000
vt 0.804688 0.925750
vt 0.812500 0.925750
vt 0.789062 0.843750
vt 0.789062 0.968750
vt 0.875000 0.925750
vt 0.781250 0.921875
vt 0.796875 0.921875
vt 0.781250 0.847625
vt 0.796875 0.847625
vt 0.796875 0.878875
vt 0.781250 0.878875
vt 0.820312 0.847625
vt 0.828125 0.847625
vt 0.828125 0.878875
vt 0.820312 0.878875
vt 0.820312 0.921875
vt 0.828125 0.921875
vt 0.750000 0.921875
vt 0.750000 0.847625
vt 0.750000 0.878875
vt 0.843750 0.921875
vt 0.843750 0.847625
vt 0.843750 0.878875
vt 0.875000 0.847625
vt 0.875000 0.878875
vt 0.750000 0.843750
vt 0.765625 0.843750
vt 0.765625 0.968750
vt 0.804688 0.847625
vt 0.812500 0.847625
vt 0.812500 0.878875
vt 0.804688 0.878875
vt 0.804688 0.921875
vt 0.812500 0.921875
vt 0.789062 0.843750
vt 0.789062 0.968750
vt 0.875000 0.921875
vt 0.969318 0.001786
vt 0.999384 0.001786
vt 0.999384 0.466863
vt 0.969318 0.466863
vt 0.820312 0.890625
vt 1.000276 0.413978
vt 0.984651 0.413978
vt 0.984651 0.468235
vt 1.000276 0.468235
vt 0.812500 0.894500
vt 0.804688 0.894500
vt 0.984416 0.386192
vt 0.999983 0.386192
vt 0.999983 0.436586
vt 0.984416 0.436586
vt 0.969380 0.004035
vt 1.000262 0.004035
vt 1.000262 0.468612
vt 0.969380 0.468612
vt 1.000271 0.001783
vt 0.969175 0.001783
vt 0.969175 0.468800
vt 1.000271 0.468800
vt 0.968849 0.386646
vt 0.968849 0.436266
vt 0.804688 0.910125
vt 0.969178 0.407564
vt 0.984375 0.407564
vt 0.984375 0.437958
vt 0.969178 0.437958
vt 0.984375 0.468351
vt 0.969178 0.468351
vt 0.999572 0.437958
vt 0.999572 0.468351
vt 0.999572 0.407564
vt 0.968925 0.469421
vt 1.000790 0.469421
vt 1.000790 -0.002184
vt 0.968925 -0.002184
vt 0.969689 0.467177
vt 0.999679 0.467177
vt 0.999679 0.001415
vt 0.969689 0.001415
vt 0.968679 0.000405
vt 0.999869 0.000405
vt 0.999869 0.467775
vt 0.968679 0.467775
vt 0.969070 0.002149
vt 0.999360 0.002149
vt 0.999360 0.468652
vt 0.969070 0.468652
vt 0.984440 0.407085
vt 0.999614 0.407085
vt 0.999614 0.437434
vt 0.984440 0.437434
vt 0.999614 0.467783
vt 0.984440 0.467783
vt 0.969265 0.437434
vt 0.969265 0.467783
vt 0.969265 0.407085
vt 0.968849 0.386192
vt 0.968849 0.436586
vt 0.969026 0.413978
vt 0.969026 0.468235
vt 0.984694 0.466158
vt 0.968742 0.466158
vt 0.968742 0.405887
vt 0.984694 0.405887
vt 1.000647 0.466158
vt 1.000647 0.405887
vn 0.0000 0.0000 -1.0000
vn 0.5736 -0.8192 -0.0000
vn 0.0000 0.0000 1.0000
vn -0.5736 0.8192 0.0000
vn -0.8192 -0.5736 0.0000
vn 0.8192 0.5736 0.0000
usemtl Material
s off
f 34/1/1 2/2/1 4/3/1 35/4/1
f 65/5/2 58/6/2 8/7/2 36/8/2
f 36/9/3 8/10/3 6/11/3 37/12/3
f 79/13/4 73/14/4 2/15/4 34/16/4
f 61/17/5 7/18/5 5/19/5 59/20/5
f 75/21/6 4/22/6 2/23/6 73/24/6
f 9/25/1 10/26/1 12/27/1 11/28/1
f 11/29/2 12/30/2 16/31/2 15/32/2
f 15/33/3 16/34/3 14/35/3 13/36/3
f 13/37/4 14/38/4 10/39/4 9/40/4
f 11/41/5 15/42/5 13/43/5 9/40/5
f 16/44/6 12/45/6 10/39/6 14/46/6
f 17/47/1 18/48/1 20/49/1 19/50/1
f 19/51/2 20/52/2 24/53/2 23/54/2
f 23/55/3 24/56/3 22/57/3 21/58/3
f 21/59/4 22/60/4 18/61/4 17/62/4
f 19/63/5 23/64/5 21/65/5 17/62/5
f 24/66/6 20/67/6 18/61/6 22/68/6
f 136/69/4 74/70/4 25/71/4 127/72/4
f 129/73/3 27/74/3 28/75/3 130/76/3
f 134/77/2 60/78/2 27/79/2 129/80/2
f 127/81/1 25/82/1 26/83/1 128/84/1
f 126/85/6 117/86/6 143/87/6 146/88/6
f 138/89/4 88/90/4 33/91/4 132/92/4
f 93/93/6 30/94/6 32/95/6 87/96/6
f 107/97/5 29/98/5 31/99/5 101/100/5
f 89/101/4 87/102/4 32/103/4 38/104/4
f 103/105/2 100/106/2 30/107/2 39/108/2
f 105/109/2 103/105/2 39/108/2 50/110/2
f 91/111/4 89/101/4 38/104/4 49/112/4
f 82/113/4 79/13/4 34/16/4 51/114/4
f 47/115/3 36/9/3 37/12/3 48/116/3
f 68/117/2 65/5/2 36/8/2 47/118/2
f 51/119/1 34/1/1 35/4/1 46/120/1
f 94/121/4 90/122/4 45/123/4 31/124/4
f 107/125/2 104/126/2 44/127/2 29/128/2
f 1/129/1 43/130/1 40/131/1 3/132/1
f 61/133/2 67/134/2 41/135/2 7/136/2
f 7/137/3 41/138/3 42/139/3 5/140/3
f 76/141/4 81/142/4 43/143/4 1/144/4
f 118/145/1 51/119/1 46/120/1 114/146/1
f 120/147/2 68/117/2 47/118/2 115/148/2
f 115/149/3 47/115/3 48/116/3 116/150/3
f 122/151/4 82/113/4 51/114/4 118/152/4
f 112/153/1 125/154/1 158/155/1 157/156/1
f 126/157/2 105/109/2 50/110/2 117/158/2
f 90/122/4 92/159/4 57/160/4 45/123/4
f 104/126/2 106/161/2 56/162/2 44/127/2
f 43/130/1 52/163/1 53/164/1 40/131/1
f 67/134/2 71/165/2 54/166/2 41/135/2
f 41/138/3 54/167/3 55/168/3 42/139/3
f 81/142/4 85/169/4 52/170/4 43/143/4
f 97/171/2 99/172/2 71/165/2 67/134/2
f 42/173/4 55/174/4 70/175/4 66/176/4
f 116/177/4 48/178/4 69/179/4 119/180/4
f 123/181/2 98/182/2 68/117/2 120/147/2
f 86/183/2 97/171/2 67/134/2 61/133/2
f 5/184/4 42/173/4 66/176/4 59/185/4
f 98/182/2 96/186/2 65/5/2 68/117/2
f 48/178/4 37/187/4 64/188/4 69/179/4
f 37/187/4 6/189/4 62/190/4 64/188/4
f 8/191/6 58/192/6 62/193/6 6/194/6
f 130/195/4 28/196/4 63/197/4 133/198/4
f 137/199/2 95/200/2 60/78/2 134/77/2
f 86/201/5 61/17/5 59/20/5 94/202/5
f 96/186/2 93/203/2 58/6/2 65/5/2
f 111/204/4 113/205/4 85/169/4 81/142/4
f 40/206/2 53/207/2 84/208/2 80/209/2
f 114/210/2 46/211/2 83/212/2 121/213/2
f 125/214/4 112/215/4 82/113/4 122/151/4
f 101/216/4 111/204/4 81/142/4 76/141/4
f 3/217/2 40/206/2 80/209/2 72/218/2
f 112/215/4 110/219/4 79/13/4 82/113/4
f 46/211/2 35/220/2 78/221/2 83/212/2
f 35/220/2 4/222/2 75/223/2 78/221/2
f 3/224/5 72/225/5 76/226/5 1/144/5
f 128/227/2 26/228/2 77/229/2 135/230/2
f 139/231/4 109/232/4 74/70/4 136/69/4
f 100/233/6 75/21/6 73/24/6 108/234/6
f 110/219/4 108/235/4 73/14/4 79/13/4
f 39/108/2 30/107/2 93/203/2 96/186/2
f 29/98/5 86/201/5 94/202/5 31/99/5
f 117/236/6 123/237/6 145/238/6 143/239/6
f 50/110/2 39/108/2 96/186/2 98/182/2
f 29/128/2 44/127/2 97/171/2 86/183/2
f 117/158/2 50/110/2 98/182/2 123/181/2
f 44/127/2 56/162/2 99/172/2 97/171/2
f 66/176/4 70/175/4 92/159/4 90/122/4
f 119/180/4 69/179/4 91/111/4 124/240/4
f 59/185/4 66/176/4 90/122/4 94/121/4
f 69/179/4 64/188/4 89/101/4 91/111/4
f 64/188/4 62/190/4 87/102/4 89/101/4
f 58/192/6 93/93/6 87/96/6 62/193/6
f 133/198/4 63/197/4 88/90/4 138/89/4
f 38/104/4 32/103/4 108/235/4 110/219/4
f 30/94/6 100/233/6 108/234/6 32/95/6
f 132/92/4 33/91/4 109/232/4 139/231/4
f 49/112/4 38/104/4 110/219/4 112/215/4
f 31/124/4 45/123/4 111/204/4 101/216/4
f 109/241/5 33/242/5 151/243/5 156/244/5
f 45/123/4 57/160/4 113/205/4 111/204/4
f 80/209/2 84/208/2 106/161/2 104/126/2
f 121/213/2 83/212/2 105/109/2 126/157/2
f 72/218/2 80/209/2 104/126/2 107/125/2
f 83/212/2 78/221/2 103/105/2 105/109/2
f 78/221/2 75/223/2 100/106/2 103/105/2
f 72/225/5 107/97/5 101/100/5 76/226/5
f 135/230/2 77/229/2 102/245/2 140/246/2
f 77/229/2 121/213/2 126/157/2 102/245/2
f 124/247/3 91/248/3 153/249/3 155/250/3
f 63/197/4 119/180/4 124/240/4 88/90/4
f 140/251/1 102/252/1 141/253/1 149/254/1
f 109/232/4 125/214/4 122/151/4 74/70/4
f 26/228/2 114/210/2 121/213/2 77/229/2
f 95/200/2 123/181/2 120/147/2 60/78/2
f 28/196/4 116/177/4 119/180/4 63/197/4
f 137/255/5 131/256/5 147/257/5 148/258/5
f 125/154/1 109/259/1 156/260/1 158/155/1
f 74/70/4 122/151/4 118/152/4 25/71/4
f 27/74/3 115/149/3 116/150/3 28/75/3
f 60/78/2 120/147/2 115/148/2 27/79/2
f 25/82/1 118/145/1 114/146/1 26/83/1
f 84/208/2 135/230/2 140/246/2 106/161/2
f 57/160/4 132/92/4 139/231/4 113/205/4
f 70/175/4 133/198/4 138/89/4 92/159/4
f 56/162/2 131/261/2 137/199/2 99/172/2
f 113/205/4 139/231/4 136/69/4 85/169/4
f 53/207/2 128/227/2 135/230/2 84/208/2
f 99/172/2 137/199/2 134/77/2 71/165/2
f 55/174/4 130/195/4 133/198/4 70/175/4
f 92/159/4 138/89/4 132/92/4 57/160/4
f 106/161/2 140/246/2 131/261/2 56/162/2
f 52/163/1 127/81/1 128/84/1 53/164/1
f 71/165/2 134/77/2 129/80/2 54/166/2
f 54/167/3 129/73/3 130/76/3 55/168/3
f 85/169/4 136/69/4 127/72/4 52/170/4
f 149/262/2 141/263/2 142/264/2 147/265/2
f 147/265/2 142/264/2 144/266/2 148/267/2
f 142/264/2 143/268/2 145/269/2 144/266/2
f 141/263/2 146/270/2 143/268/2 142/264/2
f 131/271/5 140/272/5 149/273/5 147/274/5
f 123/275/3 95/276/3 144/277/3 145/278/3
f 95/279/3 137/280/3 148/281/3 144/282/3
f 102/283/1 126/284/1 146/285/1 141/286/1
f 155/287/4 153/288/4 154/289/4 152/290/4
f 152/290/4 154/289/4 157/291/4 158/292/4
f 151/293/4 152/290/4 158/292/4 156/294/4
f 150/295/4 155/287/4 152/290/4 151/293/4
f 88/296/3 124/247/3 155/250/3 150/297/3
f 33/242/5 88/298/5 150/299/5 151/243/5
f 49/300/6 112/301/6 157/302/6 154/303/6
f 91/304/6 49/300/6 154/303/6 153/305/6
